<svg xmlns="http://www.w3.org/2000/svg" version="1.1" width="600px" height="600px" viewBox="0 0 200 200"
	style="overflow:hidden!important;">
	<g id="svga-group-wrapper">
		<g id="svga-group-backs-single">
			<path id="SvgjsPath8804" d="M0 0h200v200H0V0z" fill="#ecf0f1" stroke-width="none" opacity="1"></path>
			<path id="SvgjsPath8805"
				d="M100 124.2c-13.3 0-24.2-10.8-24.2-24.2S86.7 75.8 100 75.8s24.2 10.8 24.2 24.2-10.9 24.2-24.2 24.2zm0-42.4c-10 0-18.2 8.2-18.2 18.2s8.2 18.2 18.2 18.2 18.2-8.2 18.2-18.2S110 81.8 100 81.8zm0 57.4c-21.6 0-39.2-17.6-39.2-39.2S78.4 60.8 100 60.8s39.2 17.6 39.2 39.2-17.6 39.2-39.2 39.2zm0-72.4c-18.3 0-33.2 14.9-33.2 33.2s14.9 33.2 33.2 33.2 33.2-14.9 33.2-33.2-14.9-33.2-33.2-33.2zm0 87.5c-29.9 0-54.3-24.4-54.3-54.3S70.1 45.7 100 45.7 154.3 70 154.3 100s-24.4 54.3-54.3 54.3zm0-102.6c-26.6 0-48.3 21.7-48.3 48.3 0 26.6 21.7 48.3 48.3 48.3 26.6 0 48.3-21.7 48.3-48.3 0-26.6-21.7-48.3-48.3-48.3zm0 116.4c-37.6 0-68.1-30.6-68.1-68.1S62.4 31.9 100 31.9s68.1 30.6 68.1 68.1-30.5 68.1-68.1 68.1zm0-130.2c-34.2 0-62.1 27.9-62.1 62.1s27.9 62.1 62.1 62.1 62.1-27.9 62.1-62.1-27.9-62.1-62.1-62.1zm0 146.2c-46.4 0-84.1-37.7-84.1-84.1S53.6 15.9 100 15.9s84.1 37.7 84.1 84.1-37.7 84.1-84.1 84.1zm0-162.2c-43.1 0-78.1 35-78.1 78.1s35 78.1 78.1 78.1 78.1-35.1 78.1-78.1-35-78.1-78.1-78.1zm0 90c-6.6 0-11.9-5.4-11.9-11.9 0-6.6 5.4-11.9 11.9-11.9 6.6 0 11.9 5.4 11.9 11.9 0 6.6-5.3 11.9-11.9 11.9zm0-17.8c-3.3 0-5.9 2.7-5.9 5.9 0 3.3 2.7 5.9 5.9 5.9 3.3 0 5.9-2.7 5.9-5.9 0-3.3-2.6-5.9-5.9-5.9zM0 146.7v12.8c9.9 16.6 23.9 30.6 40.5 40.5h12.8C29.9 189 11 170.1 0 146.7zm200 0c-11 23.4-29.9 42.3-53.3 53.3h12.8c16.6-9.9 30.6-23.9 40.5-40.5v-12.8zm0-93.4V40.5C190.1 23.9 176.1 9.9 159.5 0h-12.8C170.1 11 189 29.9 200 53.3zm-200 0C11 29.9 29.9 11 53.3 0H40.5C23.9 9.9 9.9 23.9 0 40.5v12.8zm200 36.3C195.1 42.5 157.6 4.9 110.4 0H89.6C42.5 4.9 4.9 42.5 0 89.6v20.8c4.9 47.1 42.5 84.7 89.6 89.6h20.8c47.1-4.9 84.7-42.4 89.6-89.6V89.6zM100 194.5c-52.1 0-94.5-42.4-94.5-94.5S47.9 5.5 100 5.5s94.5 42.4 94.5 94.5-42.4 94.5-94.5 94.5zM0 176.2v9.5c4.4 5.1 9.1 9.9 14.3 14.3h9.5c-9-6.8-17-14.8-23.8-23.8zm200 0c-6.8 8.9-14.8 16.9-23.8 23.8h9.5c5.1-4.4 9.9-9.1 14.3-14.3v-9.5zM0 23.8c6.8-9 14.8-17 23.8-23.8h-9.5C9.1 4.4 4.4 9.1 0 14.3v9.5zm200 0v-9.5c-4.4-5.1-9.1-9.9-14.3-14.3h-9.5c9 6.8 17 14.8 23.8 23.8z"
				fill="#c6dce2" stroke-width="none" opacity="1"></path>
		</g>
		<g id="svga-group-humanwrap-move" transform="matrix(1,0,0,1,2,-6)">
			<g id="svga-group-humanwrap"
				transform="matrix(0.8499994000000002,0,0,0.8499994000000002,15.020683194217284,18.627528886038192)">
				<g id="svga-group-hair-back-move" transform="matrix(1,0,0,1,0,0)">
					<g id="svga-group-hair-back">
						<path id="SvgjsPath9042"
							d="M134.2 50.7s5.7 1.1 10.5 12 2.8 23.4 2.2 32.1-2 36-10.9 49.8-13.1 14.6-23.4 18.4c-10.3 3.7-36.5 2.6-47.6-7.4-11.1-10.1-6.5-26.9-3.7-33 2.8-6.2 72.9-71.9 72.9-71.9"
							fill="#332920" stroke-width="none" opacity="1" stroke="none"></path>
						<path id="SvgjsPath9043"
							d="M71.2 121.7s-2.8 7.1-3.4 12c-.6 4.9 2.6 9.5 4.5 12.1 2.1 2.8 6 7.6 6.1 17.2.1 6 41.6-5.5 41.6-5.5 3.7-2.9 11.1-9.6 15.6-20.9 3.8-9.5 3.8-17.8 3.5-22.4-17.2 6.2-34.5 12.5-51.7 18.7l-2.8-4.3-13.4-6.9z"
							fill="#2c2219" stroke-width="none" opacity="1" stroke="none"></path>
					</g>
				</g>
				<g id="svga-group-humanbody-back">
					<path id="SvgjsPath8876"
						d="m168.5 219.5-1.7-21.5s.7-9-8.8-15.3-23.4-10.1-29.5-14.2c-6.1-4.1-9.2-4.5-9-16.9s.9-40.3.9-40.3H79.6s.7 27.9.9 40.3c.2 12.4-2.9 12.8-9 16.9-6.1 4.1-20 7.9-29.5 14.2S33.2 198 33.2 198l-1.6 21.5h136.9z"
						fill="#d3a488" stroke-width="none" opacity="1" stroke="none"></path>
				</g>
				<g id="svga-group-chinshadow-single">
					<path id="SvgjsPath8872"
						d="M80.4 155.4c5.9 5.8 12.6 9.3 19.6 9.3s13.7-3.5 19.6-9.3c-.1-1.1-.1-2.4-.1-3.8.2-12.4.9-40.3.9-40.3H79.6s.7 27.9.9 40.3c0 1.4 0 2.7-.1 3.8z"
						fill="#b47650" stroke-width="none" opacity="0.65" stroke="none"></path>
				</g>
				<g id="svga-group-humanbody-front">
					<path id="SvgjsPath8877"
						d="M73.8 175.9c5.1 2.9 11.8 5.2 17.6 5.7.4 0 .4-.6.1-.7-2.8-1.1-5.9-1.7-8.8-2.6-2.9-.9-5.8-2-8.8-2.7-.1-.1-.3.2-.1.3zm35.2 6.2c5.3-.6 11.3-3 15.9-5.8.3-.2.1-.6-.2-.5-2.6.9-5.2 2-7.8 2.9-2.6.9-5.4 1.5-8 2.5-.5.1-.5.9.1.9z"
						fill="#b47650" stroke-width="none" opacity="1" stroke="none"></path>
					<path id="SvgjsPath8878"
						d="m168.4 219.4-2.1-21.4c0-2.2-.5-4.5-1.5-6.6-.9-2.1-2.3-3.9-3.9-5.5s-3.5-2.8-5.5-4c-2-1.2-4.1-2.2-6.2-3.1-4.2-1.9-8.6-3.6-12.9-5.4-2.2-.9-4.3-1.9-6.4-3-1.1-.6-2.1-1.2-3-1.9-1-.6-2-1.2-3-1.9s-2-1.5-2.8-2.6c-.8-1-1.3-2.2-1.7-3.4-.7-2.4-.8-4.8-.8-7.2 0-4.7.2-9.4.3-14.1.2-9.4.6-18.7.9-28l.6.6-20.4-.2-20.4-.1.3-.3.7 28c.1 4.7.3 9.3.4 14 0 2.4-.1 4.7-.8 7.1-.3 1.2-.9 2.3-1.6 3.3-.8 1-1.7 1.8-2.7 2.5s-2 1.3-2.9 2c-.9.6-1.9 1.3-3 1.9-2.1 1.2-4.2 2.1-6.4 3.1-4.3 1.9-8.6 3.6-12.8 5.6-2.1 1-4.2 2.1-6.1 3.2-2 1.2-3.8 2.4-5.4 4-1.6 1.6-2.9 3.4-3.8 5.4-.4 1-.8 2.1-1 3.1-.2 1.1-.4 2.2-.3 3.2v.2l-1.5 21.5-1-1.1 34 .1c11.3 0 22.7.1 34.1.2l34.2.3 34.4.5zm.2.2-34 .4-34.2.3c-11.4.1-22.9.2-34.4.2l-34.4.1h-1.1l.1-1.1 1.7-21.5v.1c-.1-5.1 2.2-9.8 5.7-13.3 1.7-1.7 3.8-3.1 5.8-4.3 2-1.2 4.2-2.2 6.3-3.2 4.3-2 8.7-3.7 13-5.4 2.1-.9 4.3-1.8 6.3-2.9 1-.5 1.9-1.1 3-1.8 1-.6 2-1.2 2.9-1.9.9-.6 1.8-1.4 2.4-2.2.7-.9 1.2-1.9 1.5-2.9.6-2.1.8-4.5.8-6.8 0-4.6-.1-9.3-.2-14l-.6-28v-.3h.3l20.4-.1 20.4-.2h.6v.6c-.1 9.3-.2 18.7-.4 28-.1 4.7-.2 9.4-.2 14 .1 2.3.2 4.6.8 6.7.3 1.1.8 2 1.4 2.9.6.8 1.4 1.6 2.4 2.2.9.6 1.9 1.3 2.9 1.9 1 .7 1.9 1.3 2.9 1.8 2 1.1 4.1 2.1 6.3 3 4.3 1.8 8.6 3.6 12.9 5.6 2.1 1 4.2 2.1 6.2 3.3 2 1.2 4 2.6 5.7 4.3 3.4 3.4 5.6 8.1 5.4 13v-.1l1.4 21.6zm-112.8-.4 1.9-13.8.1 13.8h-2zm88.6 0-1.9-13.8-.1 13.8h2z"
						fill="#a56139" stroke-width="none" opacity="1" stroke="none"></path>
				</g>
				<g id="svga-group-clothes-single">
					<path id="SvgjsPath9009"
						d="m122.4 220 2.7-26.8s-14.3 16-25 19.1c0 0-16.5-9.3-26.3-19.1l3.9 26.8h44.7z" fill="#efefef"
						stroke-width="none" opacity="1"></path>
					<path id="SvgjsPath9010"
						d="M125.3 192.9c-.2-.2-.4-.1-.6 0a147.859 147.859 0 0 1-11.5 10.9c-2 1.7-4.1 3.3-6.3 4.8-2.2 1.4-4.5 2.7-6.9 3.5-2.3-1.3-4.6-2.7-6.9-4.2-2.3-1.5-4.5-3-6.7-4.6-4.4-3.2-8.6-6.6-12.4-10.4-.1-.1-.2-.1-.3-.1-.2 0-.3.2-.3.4.6 4.5 1.2 8.9 1.8 13.4.6 4.5 1.2 8.9 1.9 13.4 0 .2.3.4.5.4h11.3l11.2-.1 11.2-.1 11.1-.2 1.6-13.3 1.5-13.5c0-.1-.1-.2-.2-.3zm-1.9 13.5-1.1 13.5-11.3-.2-11.2-.1-11.2-.1H77.9c-.6-4.3-1.3-8.6-1.9-13-.6-4.1-1.2-8.2-1.9-12.3 3.7 3.5 7.8 6.6 11.9 9.5 2.2 1.6 4.5 3.1 6.8 4.5s4.6 2.9 7 4.3h.1c2.6-.8 4.9-2 7.2-3.4s4.4-3 6.5-4.6c2.1-1.7 4.1-3.4 6-5.3 1.6-1.5 3.2-3.2 4.7-4.8-.2 4-.5 8-.9 12z"
						fill="#080c0c" stroke-width="none" opacity="1"></path>
					<path id="SvgjsPath9011"
						d="M75.7 167.9s1.2-3.7 1.7-6.4c.6-2.7.4-9.3.4-9.3s-1.9 4.1-4.6 6.4-13.2 9.1-13.2 9.1l2.3 1.6S37.7 178 36 179.2c-1.7 1.2-1.9 3.7-1.9 3.7l-2.1.6c-4.1 16.8-4.1 36.6-4.1 36.6h54.5s-2.3-16.6-3.3-23c-.9-6.5-3.4-29.2-3.4-29.2zm92.7 15.5-2.1-.6s-.2-2.5-1.9-3.7c-1.7-1.2-26.3-9.9-26.3-9.9l2.3-1.6s-10.4-6.8-13.2-9.1c-2.7-2.3-4.6-6.4-4.6-6.4s-.2 6.6.4 9.3 1.7 6.4 1.7 6.4-2.5 22.6-3.5 29c-1 6.4-3.3 23-3.3 23h54.5c0 .2 0-19.5-4-36.4z"
						fill="#252a2b" stroke-width="none" opacity="1"></path>
					<path id="SvgjsPath9012"
						d="M140.3 179c-1.8-1.9-4.2-3.2-6.2-5-2-1.8-3.6-3.9-5.4-5.9-.2-.2-.6.1-.4.3 1.3 2.5 3.1 4.7 5.1 6.7 1.7 1.7 3.9 3.9 6.3 4.7-5.2 9.5-8.4 21.2-9.6 31.9 0 .2.3.3.4.1 1.2-5.5 2.2-11 3.9-16.4 1.6-5.4 4.1-10.4 6.1-15.7.1-.1 0-.2-.1-.3.1-.1 0-.2-.1-.4zm-2-11.9c-2.1-1.2-4.3-2.2-6.3-3.6-2.2-1.5-4.2-3.3-6.1-5.2-.2-.2-.4.1-.2.2 3.1 3.9 7.5 7.8 12.4 9.1.3.2.5-.3.2-.5zm18.9 10.5c-5.7-2.4-11.6-4.6-17.5-6.4-.2-.1-.3.2-.1.3 3.5 1.7 7.1 3.3 10.7 4.8 4.6 1.9 10.2 3.1 12.7 7.8.2.4.8.1.7-.3-.6-3.5-3.5-5-6.5-6.2zm9.5 8.4c-.1-.4-.7-.3-.7.1.7 5.4 1.9 10.6 2.5 16 .6 5.4.4 10.9 1.1 16.2 0 .4.5.4.6 0 1.2-9.9-.4-22.8-3.5-32.3zm-92.6-16.9c.5-1 .6-2.2.8-3.3.3-1.2.7-2.4 1-3.6.1-.2-.2-.3-.3-.1-.7 1-1.1 2.1-1.6 3.2-.4 1.1-.9 2.4-.8 3.6.1.4.7.7.9.2zm-.3 1.6c0-.1-.2-.1-.2 0-.1 6.5 1.2 13.2 2.2 19.7 1 7.1 2.1 14.3 4 21.3 0 .1.1 0 .1 0-.7-6.6-1.8-13.1-2.8-19.6-1.2-7-1.5-14.4-3.3-21.4zm-5.1 0c-2.8 3.1-5.4 5.9-8.8 8.3-.4.3-.3.9.1 1 1.4 4.4 3.4 8.5 4.8 12.9 1.4 4.5 2.3 9.2 3.5 13.7.1.3.5.2.5-.1-.5-8.7-3.2-19.2-7.9-26.7 3.3-2.3 6.5-5.2 8.4-8.7 0-.4-.4-.7-.6-.4zm-32.6 11.1c1.3 5.7 3.9 11.4 5.9 16.9.1.3.5.2.5-.1-1.1-5.6-2.6-12.2-5.6-17.1-.4-.4-.9-.1-.8.3z"
						fill="#383a3a" stroke-width="none" opacity="1"></path>
					<path id="SvgjsPath9013"
						d="M80.7 200.4c-.3-2.2-.6-4.3-.9-6.5-1.1-8.6-2.2-17.3-3.4-25.9.4-1.2.7-2.5 1-3.7.1-.3.2-.6.2-.9.3-.4.9-1.1 1.3-2 .6-1.4 1.1-3.8 1.2-6.2s0-4.8 0-4.8-2.4 1.1-2.5 1.8c-.9 1.8-1.9 3.4-3.2 4.9-1.2 1.5-2.9 2.6-4.5 3.8-3 2.1-6 4.1-9.2 6-.3.2-.6.3-.9.5l-.1.1c-.2.2-.1.5.1.6.4.3.8.6 1.2.8l.2.2c-4.8 1.6-9.6 3.2-14.4 4.9-2.5.9-5.1 1.8-7.6 2.8l-1.9.8-1 .4c-.3.2-.7.3-1 .6-.7.5-1.2 1.2-1.5 1.9-.2.5-.4 1.1-.5 1.6l-1.6.4c-.3.1-.5.3-.6.6-1.4 6-2.2 12.2-2.8 18.3-.2 3.1-.5 6.1-.5 9.2 0 1.5-.1 3.1-.1 4.6v4.6l27 .6 13.8.2c4.6.1 9.2.1 13.8.1h.2c.6-.1 1-.6.9-1.2l-1.8-13-.9-6.1zM28 219.9c.1-.1 0-.3.1-.5v-.6l.1-1.1.1-2.3c.1-1.5.2-3.1.4-4.6.3-3.1.6-6.1 1-9.1s.9-6.1 1.4-9.1c.5-2.9 1.1-5.7 1.8-8.5l1.6-.4h.1c.5 1.2 1.1 2.4 1.5 3.7l.9 2.2.8 2.3c1 3 1.9 6.1 2.6 9.2.8 3.1 1.4 6.2 2 9.4.3 1.6.5 3.2.7 4.8.2 1.4.4 2.9.5 4.4l-15.6.2zm41-.8-13.5.2-12 .3c0-3.1-.2-6.2-.6-9.2-.4-3.2-1-6.4-1.7-9.5-.8-3.1-1.7-6.2-2.9-9.2-1-2.8-2.3-5.4-3.8-8 .2-.1.4-.4.4-.6.1-1.1.6-2.3 1.4-2.9.2-.2.4-.2.7-.4l.9-.4 1.9-.8 7.5-2.9 15-5.7c1.2.6 2.5 1.1 3.9 1.5-.5.4-1 .9-1.5 1.3-1.2 1-2.5 2-3.7 3-1.3.9-2.6 1.8-3.9 2.6-.4.2-.5.7-.4 1.1 1.3 3.3 2.6 6.6 3.8 9.9 1.2 3.3 2.3 6.7 3.5 10.1 1.1 3.4 2.1 6.8 3.1 10.2.9 3.1 1.6 6.3 2.4 9.5-.2-.1-.3-.1-.5-.1zm.6 0c-.3-3.3-.7-6.5-1.3-9.7-.7-3.5-1.5-7-2.5-10.5s-2.1-6.9-3.3-10.3c-1.2-3.1-2.4-6.2-3.8-9.3 1.2-.8 2.2-1.6 3.3-2.5 1.2-1 2.4-2.1 3.6-3.3 2.3-2.3 4.5-4.6 6.5-7.1-1.9 1.7-3.7 3.3-5.6 4.9-1.2-.9-2.4-1.6-3.7-2.3 0 0 0-.1-.1-.1l-1.1-.7c-.2-.1-.4-.3-.7-.4.1-.1.2-.1.3-.2 3-2 6-4.1 9-6.2 1.6-1.2 3.3-2.3 4.7-3.8 1-1.2 1.9-2.5 2.7-3.8 0 2.2-.1 4.4-.3 6.5-.2 1.3-.5 2.5-.9 3.8-.4 1.3-.8 2.5-1.2 3.8v.2c.8 8.7 1.8 17.4 2.8 26.1.2 2.2.5 4.4.8 6.5l.9 6.5 1.7 11.8c-4 0-7.9 0-11.8.1zm102.9-8.3c-.1-3.1-.3-6.1-.6-9.2-.5-6.1-1.4-12.3-2.8-18.3-.1-.3-.3-.5-.6-.6l-1.6-.4c-.1-.6-.2-1.1-.5-1.6-.3-.7-.8-1.4-1.5-1.9-.3-.3-.7-.4-1.1-.6l-1-.4-1.9-.8c-2.5-1-5.1-1.9-7.6-2.8-4.8-1.7-9.6-3.3-14.4-4.9l.2-.2c.4-.3.8-.5 1.2-.8.2-.1.3-.4.1-.6 0-.1-.1-.1-.1-.1-.3-.2-.6-.4-.9-.5-3.1-1.9-6.2-3.9-9.1-6-1.6-1.2-3.3-2.3-4.5-3.8-1.3-1.5-2.3-3.2-3.2-4.9 0-.1-.1-.1-.1-.1-.5-.6-2.4-1.1-2.4-1.1-.1 2.9-.1 7.4.5 9.7.4 1.7 1.8 3.6 2.4 4.5.3 1 .5 2 .8 2.9-1.2 8.6-2.3 17.2-3.4 25.9-.3 2.2-.6 4.3-.9 6.5l-1 6.5-1.8 13c-.1.6.3 1.1.9 1.2h.2c4.6 0 9.2 0 13.8-.1l13.8-.2 27-.6c.1-.3 0-.5.1-.6v-4c.1-2.1.1-3.6 0-5.1zm-53.4 8.1 1.7-11.8.9-6.5c.3-2.2.6-4.3.8-6.5 1-8.7 1.9-17.4 2.8-26.1v-.2c-.4-1.2-.8-2.5-1.2-3.8-.3-1.3-.7-2.5-.9-3.8-.2-2.1-.3-4.3-.3-6.5.8 1.4 1.7 2.6 2.7 3.8 1.3 1.6 3.1 2.7 4.7 3.8 3 2.1 6 4.1 9 6.2.1.1.2.1.3.2-.2.1-.4.3-.7.4l-1.1.7-.1.1c-1.3.7-2.5 1.4-3.7 2.3-1.9-1.6-3.8-3.2-5.6-4.9 2 2.5 4.2 4.9 6.5 7.1 1.1 1.1 2.3 2.2 3.6 3.3 1.1.9 2.1 1.7 3.3 2.5-1.4 3.1-2.6 6.1-3.8 9.3-1.2 3.4-2.4 6.8-3.3 10.3-1 3.4-1.8 7-2.5 10.5-.6 3.2-1.1 6.5-1.3 9.7-4 0-7.9 0-11.8-.1zm25.8.4-13.5-.2h-.5c.8-3.2 1.5-6.3 2.4-9.5.9-3.4 2-6.9 3.1-10.2 1.1-3.4 2.2-6.8 3.5-10.1 1.2-3.3 2.5-6.7 3.9-9.9.2-.4 0-.9-.4-1.1-1.3-.7-2.6-1.6-3.9-2.6-1.3-.9-2.5-1.9-3.7-3-.5-.4-1-.9-1.5-1.3 1.3-.4 2.6-1 3.9-1.5l15 5.7 7.5 2.9 1.9.8.9.4c.3.1.5.2.7.4.8.6 1.3 1.8 1.4 2.9 0 .3.2.5.4.6-1.4 2.6-2.7 5.2-3.8 8-1.2 3-2.1 6.1-2.9 9.2-.7 3.1-1.4 6.3-1.7 9.5-.4 3.1-.6 6.1-.6 9.2l-12.1-.2zm12 .3c.2-1.5.3-2.9.6-4.4.2-1.6.5-3.2.7-4.8.6-3.2 1.2-6.3 1.9-9.4.7-3.1 1.6-6.2 2.6-9.2l.8-2.3.9-2.2c.4-1.2 1-2.4 1.5-3.7h.1l1.6.4c.6 2.8 1.3 5.6 1.8 8.5.5 3 1 6 1.4 9.1.4 3 .7 6.1.9 9.1.1 1.5.3 3.1.4 4.6l.1 2.3.1 1.1v.6c0 .2 0 .4.1.5l-15.5-.2z"
						fill="#080c0c" stroke-width="none" opacity="1"></path>
				</g>
				<g id="svga-group-head" transform="matrix(1,0,0,1,0,0)">
					<g id="svga-group-ears-left-move" transform="matrix(1,0,0,1,0,0)">
						<g id="svga-group-ears-left">
							<path id="SvgjsPath8826"
								d="M64.2 96.3c-.2-.3-3.1-4-5.5-6.3-2.5-2.3-3.2-2.2-4.4-.8s-2.7 8.5-2.3 11.7 3.3 8.2 4.9 11c1.6 2.8 3.1 6.3 4.8 6 1.8-.3 4.2-4.3 5.3-7.3 1.2-3 .6-10.3-2.8-14.3z"
								fill="#d3a488" stroke-width="none" opacity="1" stroke="none"></path>
							<path id="SvgjsPath8827"
								d="M67.9 104.8c.1.8.2 1.6.2 2.4s0 1.6-.2 2.4l-.3 1.2c-.1.4-.3.7-.4 1-.3.7-.6 1.3-.9 2-.7 1.2-1.4 2.4-2.4 3.4-.5.5-1 1-1.7 1.2-.3.1-.8.1-1.2 0-.4-.2-.7-.4-1-.7-1.2-1.2-1.8-2.6-2.5-4s-1.4-2.7-2.1-4.1c-.7-1.4-1.4-2.8-2-4.2-.3-.7-.6-1.4-.9-2.2-.3-.7-.5-1.5-.6-2.3-.2-1.6 0-3.2.1-4.7.2-1.5.4-3 .8-4.5.2-.7.4-1.5.7-2.2.1-.2.2-.3.3-.5s.2-.4.3-.5c.2-.3.5-.5.8-.7s.7-.3 1.1-.3c.4.1.7.2 1.1.4.6.4 1.1.9 1.7 1.4 2 2.1 3.7 4.5 5.6 6.8 1.8 2.5 2.9 5.6 3.5 8.7zm-9.6-14.6c-1-.8-2.2-1.7-2.9-1.2-.2.1-.4.3-.6.6-.1.1-.2.2-.2.3-.1.1-.1.3-.2.4-.3.6-.5 1.2-.7 1.9-.4 1.3-.8 2.8-1.1 4.2-.3 1.4-.5 3-.4 4.4.1.7.3 1.5.5 2.2l.9 2.1c.6 1.4 1.4 2.7 2.2 4s1.6 2.6 2.3 3.9c.4.7.7 1.3 1.1 1.9.4.6.8 1.2 1.2 1.6s.8.6 1.2.4.9-.5 1.3-1c.8-.9 1.5-2 2.2-3.2l.9-1.8c.1-.3.3-.6.4-.9l.2-.4c0-.2.1-.3.1-.5.3-1.3.3-2.8.3-4.3-.1-1.5-.3-3-.8-4.5s-1.2-2.9-2.1-4c-1.7-2.2-3.7-4.4-5.8-6.1z"
								fill="#c48c6b" stroke-width="none" opacity="1" stroke="none"></path>
							<path id="SvgjsPath8828"
								d="M54.1 102.4c-.2-2.1-.4-7.4.8-9 2-2.7 5.6 6.1 6.5 8.8 0 .1.1.2.1.2.1.3-.1.7-.4.6-.4-.2-.8-.6-1.2-.8-1.1-.5-1.5.4-1.2 1.7.4 1.7 1.3 2.7 2.1 4 .1.2 0 .4-.2.3-1.5-.9-3.3-4.2-2.9-6.2.3-1.8 1.8-1.7 2.9-.8-.7-1.6-1.4-3.1-2.3-4.5-.6-.9-1.1-1.9-2-2-1.1-.2-.9.3-1.1 1.7-.8 4.6-.3 9.7 2.4 13.7.1.1 0 .2-.1.1-2-2.2-3.1-4.7-3.4-7.8z"
								fill="#b47650" stroke-width="none" opacity="1" stroke="none"></path>
						</g>
					</g>
					<g id="svga-group-ears-right-move" transform="matrix(1,0,0,1,0,0)">
						<g id="svga-group-ears-right">
							<path id="SvgjsPath8829"
								d="M135.8 96.3c.2-.3 3.1-4 5.5-6.3 2.5-2.3 3.2-2.2 4.4-.8s2.7 8.5 2.3 11.7-3.3 8.2-4.9 11c-1.6 2.8-3.1 6.3-4.8 6-1.8-.3-4.2-4.3-5.3-7.3-1.2-3-.6-10.3 2.8-14.3z"
								fill="#d3a488" stroke-width="none" opacity="1" stroke="none"></path>
							<path id="SvgjsPath8830"
								d="M135.7 96.3c1.8-2.3 3.5-4.7 5.6-6.8.5-.5 1-1 1.7-1.4.3-.2.7-.4 1.1-.4.4-.1.8.1 1.1.3.3.2.6.5.8.7.1.1.2.3.3.5s.2.3.3.5c.3.7.5 1.4.7 2.2.4 1.5.6 3 .8 4.5.1 1.5.3 3.1.1 4.7-.1.8-.3 1.6-.6 2.3-.3.8-.6 1.5-.9 2.2-.6 1.4-1.3 2.8-2 4.2-.7 1.4-1.4 2.7-2.1 4.1-.7 1.4-1.4 2.8-2.5 4-.3.3-.6.6-1 .7s-.9.2-1.2 0c-.7-.2-1.2-.7-1.7-1.2-1-1-1.7-2.2-2.4-3.4-.3-.6-.6-1.3-.9-2-.1-.3-.3-.7-.4-1l-.3-1.2c-.1-.8-.2-1.6-.2-2.4s.1-1.6.2-2.4c.5-3.3 1.6-6.4 3.5-8.7zm.1.1c-.9 1.1-1.6 2.5-2.1 4s-.7 3-.8 4.5 0 3 .3 4.3c0 .2.1.3.1.5l.2.4c.1.3.3.6.4.9l.9 1.8c.6 1.2 1.4 2.3 2.2 3.2.4.4.9.8 1.3 1 .4.2.8 0 1.2-.4s.8-1 1.2-1.6.8-1.3 1.1-1.9c.7-1.3 1.6-2.6 2.3-3.9.8-1.3 1.5-2.6 2.2-4l.9-2.1c.3-.7.5-1.5.5-2.2.1-1.5-.1-3-.4-4.4-.3-1.4-.6-2.9-1.1-4.2-.2-.7-.5-1.3-.7-1.9-.1-.1-.1-.3-.2-.4-.1-.1-.1-.2-.2-.3l-.6-.6c-.7-.6-1.8.4-2.9 1.2-2 1.6-4 3.8-5.8 6.1z"
								fill="#c48c6b" stroke-width="none" opacity="1" stroke="none"></path>
							<path id="SvgjsPath8831"
								d="M145.9 102.4c.2-2.1.4-7.4-.8-9-2-2.7-5.6 6.1-6.5 8.8 0 .1-.1.2-.1.2-.1.3.1.7.4.6.4-.2.8-.6 1.2-.8 1.1-.5 1.5.4 1.2 1.7-.4 1.7-1.3 2.7-2.1 4-.1.2 0 .4.2.3 1.5-.9 3.3-4.2 2.9-6.2-.3-1.8-1.8-1.7-2.9-.8.7-1.6 1.4-3.1 2.3-4.5.6-.9 1.1-1.9 2-2 1.1-.2.9.3 1.1 1.7.8 4.6.3 9.7-2.4 13.7-.1.1 0 .2.1.1 2-2.2 3.1-4.7 3.4-7.8z"
								fill="#b47650" stroke-width="none" opacity="1" stroke="none"></path>
						</g>
					</g>
					<g id="svga-group-faceshape-wrap">
						<g id="svga-group-faceshape-single">
							<path id="SvgjsPath8858"
								d="M141 88.4c0 30.3-18.9 65.2-41 65.2s-41-34.9-41-65.2 18.9-47 41-47 41 16.6 41 47z"
								fill="#d3a488" stroke-width="none" opacity="1" stroke="none"></path>
							<path id="SvgjsPath8859"
								d="M100 41.3c-22.1 0-41.1 16.7-41.1 47s19 65.5 41.1 65.5 41.1-35.2 41.1-65.5-19-47-41.1-47zm28.2 13.6.8.8c.3.3.5.6.8.9.3.3.5.6.8.9l.7.9c.2.3.5.6.7.9l.7 1 .3.5.3.5c.4.7.9 1.3 1.2 2l.6 1c.2.3.4.7.5 1l.5 1.1.5 1.1c.2.4.3.7.5 1.1l.4 1.1c2.3 5.9 3.2 12.4 3.3 18.7 0 6.4-.9 12.8-2.6 18.9-.8 3.1-1.9 6.1-3.1 9-1.2 2.9-2.5 5.8-4 8.6s-3.1 5.5-4.8 8.1c-.9 1.3-1.8 2.6-2.7 3.8-.9 1.2-1.9 2.4-3 3.6-2 2.3-4.3 4.4-6.7 6.3-2.4 1.8-5 3.3-7.8 4.3-1.4.5-2.8.9-4.3 1-1.5.2-2.9.2-4.4.1-3-.2-5.9-1.2-8.6-2.6-2.7-1.4-5.3-3.3-7.6-5.4-2.3-2.1-4.4-4.5-6.3-7.1s-3.6-5.3-5-8.1c-1.5-2.8-2.8-5.7-3.9-8.7-.6-1.5-1.1-3-1.6-4.5s-.9-3-1.3-4.6c-.8-3.1-1.4-6.2-1.8-9.3-.4-3.1-.7-6.3-.8-9.4 0-1.6 0-3.1.1-4.7 0-.8.1-1.6.1-2.3l.2-2.3c.3-3.1.9-6.2 1.7-9.1.8-3 1.8-5.9 3.2-8.6.2-.4.3-.7.5-1l.5-1c.4-.7.8-1.3 1.2-2 .4-.6.8-1.3 1.3-1.9l.7-.9.3-.5.4-.4c1.9-2.4 4.1-4.5 6.5-6.3s5-3.3 7.8-4.5 5.7-2 8.6-2.5c.7-.2 1.5-.2 2.2-.3.4-.1.8-.1 1.1-.1l1.1-.1c.8 0 1.5-.1 2.3-.1H102.6l1.1.1c.4 0 .8.1 1.1.1.4 0 .8.1 1.1.1l1.1.2.6.1.6.1 1.1.2c.4.1.7.2 1.1.3s.7.2 1.1.3c1.4.4 2.9.9 4.3 1.5s2.8 1.2 4.1 2c2.7 1.5 5.2 3.3 7.4 5.4l.4.4.5.3z"
								fill="#a56139" stroke-width="none" opacity="1" stroke="none"></path>
						</g>
					</g>
					<g id="svga-group-mouth-single-move" transform="matrix(1,0,0,1,0,0)">
						<g id="svga-group-mouth-single">
							<path id="SvgjsPath8814"
								d="M90 128.1s2 2.6 4 3.8 9.4 1.3 13.4-.2 7.5-6.6 8.1-7.8c0 0-2.9 1.9-7.1 1.5-4.3-.3-13.7.8-15.6 1.6s-2.8 1.1-2.8 1.1z"
								fill="#af2a0b" stroke-width="none" opacity="1" transform="translate(0 3)" stroke="none">
							</path>
							<path id="SvgjsPath8815"
								d="M117.2 121.6c-.5-.4-1-.6-1.6-.4-.4.1-.4.7-.1.8.1.1.2.1.3.2l-.6.6c-.7.8-2.3 2.2-5.3.8-3-1.4-5.1-1.8-7.1-.5s-2.7.9-4.6.2c-1.9-.6-4.3.4-5.5 1.7-1.2 1.3-2.2 2.6-4.1 2s-.8.5-.8.5c.2.1 1.5 1.1 2.5 1.4 1.1.2 2.1-.5 4.5-1.2s8.1-1.2 11.9-1.1c5.4.2 6.8-.6 8.3-1.8.7-.6 1.2-1.1 1.5-1.6.1.2.2.4.4.5.3.2.8.1.9-.3.2-.8-.2-1.4-.6-1.8z"
								fill="#a72102" stroke-width="none" opacity="1" transform="translate(0 3)" stroke="none">
							</path>
							<path id="SvgjsPath8816"
								d="M95.7 129.5c3.4 0 7.4.1 10.8-.9.5-.1.5-.8 0-1-3.4-1-7.7-.1-10.9 1.2-.3.2-.3.7.1.7z"
								fill="#b73315" stroke-width="none" opacity="1" transform="translate(0 3)" stroke="none">
							</path>
						</g>
					</g>
					<g id="svga-group-eyes-left-move" transform="matrix(1,0,0,1,0,-1)">
						<g id="svga-group-eyes-left">
							<g id="svga-group-eyesback-left">
								<path id="SvgjsPath8929"
									d="M92.2 101.8s-.6-1.9-2-3.8-3.3-3.9-6.6-4.5c-3.3-.6-12.1 2.2-12.1 2.2s1.4 1.9 3.1 3.1 6.3 2.9 8.2 2.8c1.9-.1 4.2-.5 5.2-.5 1.2 0 3.2 0 4.2.7z"
									fill="#ffffff" stroke-width="none" opacity="1"></path>
							</g>
							<g id="svga-group-eyesiriswrapper-left" transform="matrix(1,0,0,1,0,0)">
								<g id="svga-group-eyesiriscontrol-left" transform="matrix(1,0,0,1,0,0)">
									<g id="svga-group-eyesiris-left">
										<path id="SvgjsPath8893"
											d="M82 91.3c2.8 0 5.2 2.3 5.2 5.2s-2.3 5.2-5.2 5.2-5.2-2.3-5.2-5.2 2.3-5.2 5.2-5.2z"
											fill="#38393c" stroke-width="none" opacity="1"></path>
										<path id="SvgjsPath8894"
											d="M82 92.9c2 0 3.6 1.6 3.6 3.6S83.9 100 82 100s-3.6-1.6-3.6-3.6 1.6-3.5 3.6-3.5z"
											fill="#000000" stroke-width="none" opacity="1"></path>
										<path id="SvgjsPath8895" d="m78.2 94 4 2.9-1.6-4.7c-.3-.4-2.3.7-2.4 1.8z"
											fill="#ffffff" stroke-width="none" opacity="1"></path>
									</g>
								</g>
							</g>
							<g id="svga-group-eyesfront-left">
								<path id="SvgjsPath8937"
									d="M70.7 98c0 6.9 4.9 12.5 11 12.5s11-5.6 11-12.5-4.9-12.5-11-12.5-11 5.6-11 12.5zm.9-2.3s8.8-2.9 12.1-2.2c3.3.6 5.3 2.6 6.6 4.5 1.4 1.9 2 3.8 2 3.8-1-.7-3.1-.7-4.1-.7-1.1 0-3.3.5-5.2.5-1.9.1-6.4-1.7-8.2-2.8-1.9-1.2-3.2-3.1-3.2-3.1z"
									fill="#d3a488" stroke-width="none" opacity="1" stroke="none"></path>
								<path id="SvgjsPath8938"
									d="M71.4 96c.2.3.4.6.7.9-.8-.2-1.8 0-2.4.5-.1.1 0 .2.1.2.5-.2 1.1-.3 1.7-.3.5 0 .9.2 1.3.4.1.1.2.2.4.3-.6.1-1.1.4-1.4.8-.1.1 0 .3.1.2.5-.3 1.1-.5 1.6-.7 1.7 1.4 3.7 2.4 5.6 3 1.7.5 3.4.8 5.2.6 2.7-.3 5.1-1.4 7.8 0 .1.1.2-.1.1-.2.1 0 .1-.1.1-.2-1.2-4.4-4.7-8.2-9.4-9.1-1.9-.3-3.7 0-5.5.5-1.2-.3-2.1-.9-3.1-1.8-.1-.1-.3 0-.2.2.5.9 1.5 1.6 2.5 1.9-.3.1-.6.2-.8.3-1.8.1-3.2-.6-4.6-1.7-.1-.1-.3.1-.2.2.9 1.1 2.3 1.7 3.7 1.9-.5.2-.9.3-1.4.4-1.9 0-3.5-.6-5.2-1.7-.1-.1-.2.1-.1.2 1 1.1 2.5 1.8 4 1.9-2.3.5-4.4.3-6.8-1.2-.1-.1-.3.1-.2.2 2.2 1.9 4.3 2.4 6.4 2.3zm.5 0c1.3-.1 2.7-.5 4.2-1 3.2-1 7-1.9 10.1-.2 2.8 1.5 4.4 4.1 5.8 6.8-2.9-1.5-5.7-.3-8.8-.5-4.5-.2-8-2.4-11.3-5.1z"
									fill="#000000" stroke-width="none" opacity="1" stroke="none"></path>
							</g>
						</g>
					</g>
					<g id="svga-group-eyes-right-move" transform="matrix(1,0,0,1,0,-1)">
						<g id="svga-group-eyes-right">
							<g id="svga-group-eyesback-right">
								<path id="SvgjsPath8930"
									d="M107.8 101.8s.6-1.9 2-3.8 3.3-3.9 6.6-4.5c3.3-.6 12.1 2.2 12.1 2.2s-1.4 1.9-3.1 3.1-6.3 2.9-8.2 2.8c-1.9-.1-4.2-.5-5.2-.5-1.2 0-3.2 0-4.2.7z"
									fill="#ffffff" stroke-width="none" opacity="1"></path>
							</g>
							<g id="svga-group-eyesiriswrapper-right" transform="matrix(1,0,0,1,0,0)">
								<g id="svga-group-eyesiriscontrol-right" transform="matrix(1,0,0,1,0,0)">
									<g id="svga-group-eyesiris-right">
										<path id="SvgjsPath8896"
											d="M118 91.3c2.8 0 5.2 2.3 5.2 5.2s-2.3 5.2-5.2 5.2-5.2-2.3-5.2-5.2 2.4-5.2 5.2-5.2z"
											fill="#38393c" stroke-width="none" opacity="1"></path>
										<path id="SvgjsPath8897"
											d="M118 92.9c2 0 3.6 1.6 3.6 3.6S120 100 118 100s-3.6-1.6-3.6-3.6 1.7-3.5 3.6-3.5z"
											fill="#000000" stroke-width="none" opacity="1"></path>
										<path id="SvgjsPath8898" d="m114.2 94 4 2.9-1.6-4.7c-.2-.4-2.2.7-2.4 1.8z"
											fill="#ffffff" stroke-width="none" opacity="1"></path>
									</g>
								</g>
							</g>
							<g id="svga-group-eyesfront-right">
								<path id="SvgjsPath8939"
									d="M118.3 85.5c-6.1 0-11 5.6-11 12.5s4.9 12.5 11 12.5 11-5.6 11-12.5-5-12.5-11-12.5zm7 13.3c-1.7 1.2-6.3 2.9-8.2 2.8-1.9-.1-4.2-.5-5.2-.5-1.1 0-3.1 0-4.1.7 0 0 .6-1.9 2-3.8s3.3-3.9 6.6-4.5c3.3-.6 12.1 2.2 12.1 2.2s-1.4 1.9-3.2 3.1z"
									fill="#d3a488" stroke-width="none" opacity="1" stroke="none"></path>
								<path id="SvgjsPath8942"
									d="M134.8 93.7c.1-.1 0-.3-.2-.2-2.4 1.5-4.5 1.7-6.8 1.2 1.5-.1 2.9-.8 4-1.9.1-.1 0-.3-.1-.2-1.6 1.2-3.3 1.8-5.2 1.7-.4-.1-.9-.3-1.4-.4 1.4-.1 2.9-.7 3.7-1.9.1-.1-.1-.3-.2-.2-1.5 1.1-2.8 1.8-4.6 1.7-.3-.1-.6-.2-.8-.3 1-.3 2-1 2.5-1.9.1-.1-.1-.3-.2-.2-1 .9-1.9 1.5-3.1 1.8-1.8-.5-3.6-.8-5.5-.5-4.6.9-8.1 4.6-9.4 9.1 0 .1 0 .2.1.2-.1.1 0 .2.1.2 2.7-1.4 5.1-.3 7.8 0 1.8.2 3.5-.1 5.2-.6 1.9-.6 3.9-1.7 5.6-3 .6.2 1.1.4 1.6.7.1.1.2-.1.1-.2-.4-.4-.9-.7-1.4-.8.1-.1.2-.2.4-.3.4-.2.8-.4 1.3-.4.6 0 1.1.1 1.7.3.1 0 .2-.1.1-.2-.6-.5-1.5-.7-2.4-.5.2-.3.5-.6.7-.9 2.3.1 4.4-.4 6.4-2.3zm-18 7.5c-3.1.2-5.9-1-8.8.5 1.3-2.7 3-5.3 5.8-6.8 3.2-1.7 6.9-.8 10.1.2 1.5.5 2.9.8 4.2 1-3.3 2.6-6.8 4.8-11.3 5.1z"
									fill="#000000" stroke-width="none" opacity="1" stroke="none"></path>
							</g>
						</g>
					</g>
					<g id="svga-group-facehighlight-single"></g>
					<g id="svga-group-eyebrows-left-move" transform="matrix(1,0,0,1,0,0)">
						<g id="svga-group-eyebrows-left-rotate"
							transform="matrix(1,1.7453292519943295e-9,-1.7453292519943295e-9,1,1.4745992871212366e-7,-1.4112580970504496e-7)">
							<g id="svga-group-eyebrows-left">
								<path id="SvgjsPath8983"
									d="M71.1 84.5s0-.1 0 0c.2-.6.6-1 1-1.4.4-.4.7-.8 1.1-1.1.2-.4.6-.8.9-1.1.3-.2.7-.4 1.1-.5.1-.1.2-.1.3-.2.1 0 .3-.1.4-.1.2 0 .3 0 .4.1h.1c.5 0 1.1.1 1.6.1 1.2-.3 3.1.1 4.1.8 1.6.1 3.2.8 4.7 1.3s3 1.1 4.4 1.8c1.4.3 2.1 2.4 1.1 3.5-.1.1-.2.1-.3.2-.4.9-1.7.4-2.4.1-1.3-.5-3-1.1-3.9-2.1-.2-.1-.3-.2-.5-.3-.1-.1-.2-.1-.3-.2h-.1c-1.4-.6-2.8-1.2-4.3-1.8-.2.2-.4.2-.6.1-1.3-.7-2.8-.7-4.2-1.2-.3.2-.8.1-1.2.2h-.6c-.6.3-.9 1-1.6 1.2h-.1c-.2.2-.4.5-.7.7 0 .1-.1.1-.1.2-.2.3-.3.6-.6.8-.1.1-.3 0-.3-.2.2-.4.4-.7.6-.9z"
									fill="#2a232b" stroke-width="none" opacity="1"></path>
								<path id="SvgjsPath8984"
									d="M91.6 87.6c.1-.5.2-.9.3-1.4.1-.5 0-1-.1-1.5 0-.2.2-.2.3-.1.5.9.5 2.2-.2 3.1-.1.2-.4.1-.3-.1zM88 82.7c2.1.7 3.6 3.5 2.7 5.5-.1.1-.3.1-.3 0-.1-1-.1-2-.6-2.9-.5-.9-1.2-1.6-2-2.3-.1-.2.1-.4.2-.3zm-6.3-1.8c3.2.2 5.7 3.7 6.8 6.1.1.1-.2.3-.2.1-.9-1.2-1.8-2.5-2.8-3.5-1.2-1.1-2.5-1.6-3.9-2.4-.2 0 0-.3.1-.3zm-3.6-1c2.3.6 4.6 2.8 5.4 4.8.1.2-.2.3-.3.2-.7-.9-1.3-1.8-2.2-2.6-.9-.8-2.1-1.4-3.1-2.2-.1 0 0-.2.2-.2zm-4.3 1c1.8-1.3 4.6 1.2 5.7 2.2.1.1-.1.3-.2.2-.8-.5-1.6-1.1-2.4-1.6-.5-.3-1-.5-1.5-.6-.5-.1-1 0-1.6-.1 0 .1-.1 0 0-.1zm-2.1 3c.7-1.3 2.6-1.7 4-1.7.2 0 .2.3 0 .3-.7.1-1.3.3-2 .6-.6.3-1.1.8-1.7 1.1-.1-.1-.4-.2-.3-.3z"
									fill="#3a353a" stroke-width="none" opacity="1"></path>
								<path id="SvgjsPath8985"
									d="M68.7 88c-.2.3.2.5.4.3 1.1-1.1 2.1-2.2 3.1-3.2.5-.5 1-1 1.6-1.4 1.3-.8 2.5-.7 3.9-.2 3 1.1 5.9 2.2 8.7 3.5 1.3.6 2.9 1.8 4.3 2.2.7.2 1.3 0 1.8-.5 1.1-1.2.9-3.5.5-4.8-.1-.2-.4-.2-.4 0v.9c0-.1-.1-.1-.1-.2-.2-.4-.5-1.1-1-1.3-.1 0-.2.1-.2.1 0 .2.1.3.1.4-.1-.1-.2-.2-.4-.3-.6-.4-1.2-.9-1.8-1.1-.1 0-.2.1-.2.2.2.2.5.4.7.6-3.8-1.9-8.6-3.2-12.9-3.4-.2 0-.3-.1-.5-.1-.1 0-.1 0-.2.1-1.5 0-2.2.4-3.3 1.6-1.8 2-3.2 4.1-4.4 6.4.3.1.3.1.3.2zm23.1.2c-.1 0-.1.1-.1.1.6-1.1.6-2.6.1-3.8.2.1.3.2.5.3.2.4.3.8.4 1.2 0 .2 0 .4-.1.6-.1.5-.2 1.3-.8 1.6zm-1.6-.1c.4-1.6-.3-3.6-1.6-4.8.8.3 1.5.6 2.3.9.2.6.5 1.2.6 1.8.1.8 0 1.6-.1 2.4-.4 0-.8-.2-1.2-.3zm-1.2-.7c-.1-.1-.1-.1 0 0-.6-2-1.8-3.9-3.5-5.2.6.2 1.3.4 1.9.6.6.7 1.3 1.4 1.7 2.2.5.9.6 1.8.7 2.8-.2-.1-.5-.3-.8-.4zm-6.2-2.9c-.7-1.4-2.2-2.9-3.8-3.8 1.9.3 3.8.7 5.6 1.3 1.8 1.5 3.1 3.1 4 5.3-1.9-1.1-3.8-2-5.8-2.8zm-11.7.4c.7-1.1 1.5-2.1 2.4-3.1.5-.5 1-1.2 1.7-1.4.5-.2 1.3-.1 1.9 0 .9.5 1.8.8 2.6 1.4.9.7 1.7 1.5 2.4 2.4-.2-.1-.5-.2-.8-.3-2.4-.9-5.2-2.6-7.8-1.1-.8.5-1.6 1.3-2.4 2.1z"
									fill="#1b141c" stroke-width="none" opacity="1"></path>
							</g>
						</g>
					</g>
					<g id="svga-group-eyebrows-right-move" transform="matrix(1,0,0,1,0,0)">
						<g id="svga-group-eyebrows-right-rotate"
							transform="matrix(1,1.7453292519943295e-9,-1.7453292519943295e-9,1,1.4742346365892445e-7,-2.074239233706976e-7)">
							<g id="svga-group-eyebrows-right">
								<path id="SvgjsPath8986"
									d="M128.9 84.4c-.2-.6-.6-1-1-1.4-.4-.4-.7-.8-1.1-1.1-.2-.4-.6-.8-1-1.1-.3-.2-.7-.4-1.1-.5-.1-.1-.2-.1-.3-.2-.1 0-.3-.1-.4-.1-.2 0-.3 0-.4.1h-.1c-.5 0-1.1.1-1.6.2-1.2-.3-3.1.2-4.1.8-1.6.1-3.2.8-4.7 1.3s-3 1.1-4.4 1.8c-1.4.4-2 2.4-1 3.5.1.1.2.1.3.2.4.9 1.7.4 2.4.1 1.3-.5 2.9-1.1 3.8-2.1.2-.1.3-.2.5-.3.1-.1.2-.1.3-.2h.1c1.4-.6 2.8-1.3 4.2-1.9.2.1.4.2.7.1 1.3-.7 2.8-.7 4.2-1.2.3.2.8.1 1.2.1h.6c.6.3.9 1 1.6 1.1h.1c.2.2.4.5.7.7 0 .1.1.1.1.2.2.3.3.6.6.8.1.1.3 0 .3-.2-.1-.2-.3-.4-.5-.7z"
									fill="#2a232b" stroke-width="none" opacity="1"></path>
								<path id="SvgjsPath8987"
									d="M108.4 87.7c-.1-.5-.2-.9-.3-1.4-.1-.5 0-1 0-1.5 0-.2-.2-.2-.3-.1-.5.9-.5 2.2.2 3.1.2.2.5.1.4-.1zm3.6-4.9c-2.1.7-3.5 3.5-2.7 5.5.1.1.3.1.3 0 .1-1 .1-2 .5-2.9.4-.9 1.2-1.6 2-2.3.2-.2 0-.4-.1-.3zm6.2-1.9c-3.2.2-5.6 3.7-6.8 6.1-.1.1.2.3.2.1.9-1.2 1.7-2.5 2.8-3.5 1.1-1.1 2.5-1.6 3.9-2.4.2 0 .1-.3-.1-.3zm3.7-1c-2.3.6-4.6 2.9-5.4 4.9-.1.2.2.3.3.2.7-.9 1.3-1.8 2.2-2.6.9-.9 2.1-1.4 3.1-2.2.1-.1 0-.3-.2-.3zm4.3 1c-1.8-1.3-4.6 1.2-5.7 2.3-.1.1.1.3.2.2.8-.5 1.5-1.1 2.4-1.6.5-.3 1-.5 1.5-.6.5-.1 1 0 1.6-.1 0 0 .1-.2 0-.2zm2.1 2.9c-.7-1.3-2.6-1.7-4-1.7-.2 0-.2.3 0 .3.7.1 1.3.3 2 .6.6.3 1.1.7 1.7 1.1.1 0 .4-.1.3-.3z"
									fill="#3a353a" stroke-width="none" opacity="1"></path>
								<path id="SvgjsPath8988"
									d="M131.3 87.7c-1.2-2.3-2.6-4.5-4.4-6.4-1.1-1.2-1.8-1.6-3.3-1.5 0-.1-.1-.1-.2-.1-.2 0-.3.1-.5.1-4.3.2-9 1.6-12.9 3.5.3-.2.5-.4.7-.7.1-.1 0-.2-.2-.2-.7.2-1.3.7-1.8 1.1-.1.1-.2.2-.4.3.1-.1.1-.3.1-.4 0-.1-.1-.2-.2-.1-.5.2-.8.8-1 1.3 0 .1-.1.1-.1.2v-.9c0-.2-.3-.2-.4 0-.4 1.3-.6 3.7.6 4.8.5.5 1.1.6 1.8.5 1.5-.4 3-1.6 4.3-2.2 2.8-1.4 5.7-2.5 8.7-3.6 1.3-.5 2.6-.6 3.9.2.6.4 1.1.9 1.6 1.4 1.1 1.1 2.1 2.2 3.1 3.2.2.2.6 0 .4-.3.2-.1.2-.1.2-.2zm-23.9-1c0-.2-.1-.4-.1-.6.1-.4.2-.8.4-1.2.2-.1.3-.2.5-.3-.5 1.2-.5 2.6.1 3.8-.1 0-.1 0-.1-.1-.5-.3-.7-1.1-.8-1.6zm1.2 1.8c-.1-.8-.2-1.6-.2-2.4.1-.7.3-1.2.6-1.8.8-.3 1.5-.6 2.3-.9-1.3 1.2-1.9 3.2-1.5 4.8-.4.1-.8.3-1.2.3zm1.5-.5c.2-1 .3-1.9.7-2.8.4-.9 1.1-1.5 1.7-2.2.6-.2 1.2-.4 1.9-.7-1.7 1.3-2.9 3.2-3.3 5.1h-.1c-.2.2-.6.4-.9.6zm1.3-.8c.9-2.1 2.2-3.8 4-5.3 1.8-.6 3.7-1 5.6-1.3-1.6.9-3.1 2.5-3.8 3.9-2 .8-3.9 1.7-5.8 2.7zm15-4.4c-2.6-1.4-5.4.2-7.8 1.2-.3.1-.5.2-.8.3.7-.9 1.5-1.7 2.4-2.4.8-.6 1.7-1 2.6-1.5.7-.1 1.4-.1 1.9 0 .7.2 1.3.9 1.7 1.4.9.9 1.7 2 2.4 3-.7-.8-1.5-1.6-2.4-2z"
									fill="#1b141c" stroke-width="none" opacity="1"></path>
							</g>
						</g>
					</g>
					<g id="svga-group-nose-single-move" transform="matrix(1,0,0,1,0,0)">
						<g id="svga-group-nose-single">
							<path id="SvgjsPath8969"
								d="M97.72 89.37c-.8 3.33-.91 6.89-1.27 10.29-.38 3.64-1.08 7.4-1.03 11.06 0 .29.45.37.52.07.74-3.34.83-6.91 1.18-10.31.37-3.64 1.05-7.41.93-11.06 0-.19-.28-.24-.33-.05z"
								fill="#a56139" stroke-width="none" opacity="1" transform="translate(0 2)" stroke="none">
							</path>
							<path id="SvgjsPath8970"
								d="M94.71 108.8c-.98 1.31-1.8 2.73-2.52 4.2-.46.95-1.04 2.07-.73 3.16.5 1.8 2.79 2.36 4.28 1.51.44-.26.24-.95-.26-.95-.87-.01-1.89.27-2.58-.47-.84-.89-.01-2.5.36-3.4.55-1.32 1.22-2.59 1.74-3.92.07-.19-.19-.26-.29-.13z"
								fill="#a56139" stroke-width="none" opacity="1" transform="translate(0 2)" stroke="none">
							</path>
							<path id="SvgjsPath8971"
								d="M94.57 116.21c2.7-.2 3.21 3.2 5.78 3.28 2.2.07 2.37-3.24 4.46-3.14.24.01.32-.33.12-.45-2.37-1.4-2.81 2.72-4.99 2.46-1.29-.15-2.21-2.05-3.37-2.6-.79-.37-1.36-.34-2.13.01-.19.11-.09.46.13.44z"
								fill="#a56139" stroke-width="none" opacity="1" transform="translate(0 2)" stroke="none">
							</path>
							<path id="SvgjsPath8972"
								d="M104.07 117.75c1.78.4 3.85-.15 4.27-2.13.21-.99-.12-1.97-.64-2.81-.84-1.37-1.93-2.53-2.73-3.95-.13-.24-.47-.12-.48.13-.1 1.59 1.08 2.69 1.92 3.92.78 1.13 1.45 2.69.14 3.81-.6.51-1.74.42-2.48.56-.24.05-.23.42 0 .47z"
								fill="#a56139" stroke-width="none" opacity="1" transform="translate(0 2)" stroke="none">
							</path>
							<path id="SvgjsPath8973"
								d="M102.32 112.41c-.39-.7-1.4-.81-1.96-.25-.05.05-.23.28-.28.34-.06.08-.19.25-.21.28-.06.1-.12.2-.17.3l-.11.26c0-.01-.01.01-.03.05-.06.06-.12.13-.17.19-.17.18-.34.36-.48.57-.4.63-.08 1.35.46 1.75.83.62 2.03.12 2.61-.58.7-.84.89-1.92.34-2.91z"
								fill="#dbb198" stroke-width="none" opacity="1" transform="translate(0 2)" stroke="none">
							</path>
						</g>
					</g>
					<g id="svga-group-hair-front">
						<path id="SvgjsPath9037"
							d="M143.1 79.3c-.9 7.7-2.8 15-4.8 18.6 0 0-.3-14.3-3.7-21.1S121.2 62.2 120 56.5c0 0 1.5 3.3 3.8 4.7s10.3 7.6 12.2 9.7 5 7.3 6.3 8c.1.1.5.2.8.4zm-76.2 56.4c0 .6-.2 2.2-.5 4.5-.7-6.6-2.1-13.9-2.1-13.9s-30.2 44.5-26.2 59.2c4 14.7 12.1 24.9 12.9 25.7.8.8 4 1.9 5.4 4.5.5 1 10.5-8.8 5.6-20.6-4.8-11.8-5.9-19.8-1.9-26 .7-1.1 1.3-2.3 1.9-3.5-.8 4.3-1.5 7.7-1.7 8.7-.9 3.5-.9 8.5 1.5 14s6.1 5.8 6.1 5.8c-1.7-2.7-1.8-7.3-.2-12.1s4.2-9.5 5.6-14.5c1.5-5.2 2.2-11.4-2.7-21.7-2.7-6.1-3.7-10.1-3.7-10.1z"
							fill="#332920" stroke-width="none" opacity="1" stroke="none"></path>
						<path id="SvgjsPath9038"
							d="M120 56.5s-18.2 6.8-32.8 1.7-24 15.1-22.8 27.1 9.4 27.7 4.6 47.1c-4.8 19.4-18.8 34.2-22.8 42.8s-4 17.4 0 23.7 6 10.8 7.1 17.4c0 0-1.5-3.6-7.4-8-9.3-6.9-13.1-15.1-12.5-27.9s6.2-22.8 11.1-33.1c4.8-10.3 7.3-23.3 3.9-31.9-3.4-8.6-7.3-20.5-5.9-41.7 1.4-21.1 13.1-32.4 27.7-41s35.7-7 49.1 1.3 11.4 15.7 11.4 15.7 4-2 10 7.1 2 33.4-2.3 41.1c0 0-.3-14.3-3.7-21.1S121.2 62.2 120 56.5z"
							fill="#3b3128" stroke-width="none" opacity="1" stroke="none"></path>
						<path id="SvgjsPath9039"
							d="M127.6 50.2c-2.3 1.5-4.7 1.5-6.1.8-4.1-1.8-7.4-8-10.8-11.7-5.7-6.2-7.2-9.4-20.3-10.1-9.3-.5-16.7 1.9-21 3.8-14.2 8.5-25.5 19.8-26.9 40.6-1.4 21.1 2.4 33.1 5.9 41.7s.9 21.6-3.9 31.9c-4.8 10.3-10.5 20.3-11.1 33.1s3.3 21 12.5 27.9c5.9 4.4 7.4 8 7.4 8-1.6-4.5-4-6.3-8.7-10.6-4.8-4.3-9.4-16.4-8.4-25.6s9.7-25 13.8-31.4c4.1-6.4 7.4-17.4 8.8-23.3 1.4-5.9.2-10.8-3.9-20.9s-6.3-36.5-5.6-41c1.1-8.3 3.1-14 9.4-20.6 9.4-9.8 21.6-11.3 28.9-11.4 11.8-.1 20 7.7 21.5 9.9s10.5 11.9 12.8 12.3c2.3.4 8-3.4 8-3.4l.7-.6s.3-1 0-2.6c-.5.9-1.5 2.2-3 3.2zM102.2 60c.3 0 .7 0 1-.1.2 0 .5 0 .8-.1.4 0 .9-.1 1.3-.1.2 0 .5-.1.8-.1.3 0 .7-.1 1-.1.3 0 .6-.1.9-.1.3 0 .6-.1.9-.1.2 0 .4-.1.6-.1.4-.1.8-.2 1.2-.2.2 0 .4-.1.6-.1.4-.1.8-.2 1.1-.2.2 0 .3-.1.4-.1.3-.1.6-.2.9-.2.1 0 .2 0 .3-.1.4-.1.8-.2 1.1-.3.1 0 .2 0 .3-.1.4-.1.7-.2 1.1-.3 2.2-.6 3.5-1.1 3.5-1.1s-5 .6-10.9-5.5c-2.3-3.7-6.1-10.5-12-12.8-6.8-2.7-29.5-3.9-37.2 12.5s-2.7 30.5.6 37.4c3.3 6.9 8.5 20.1 8.3 28.7-.2 8.7-2.3 21-4.6 26.4-2.3 5.4-17.6 24.4-20.8 33.3-3.3 9.3-4.4 15.6 3.5 28.3 3 4.9 5 6.3 5.8 8.1-1.2-5-3.1-9-6.5-14.2-4-6.3-4-15.1 0-23.7s18-23.4 22.8-42.8-3.4-35.1-4.6-47.1S72.7 52.9 87.2 58c1.9.7 3.9 1.1 5.8 1.4h.1c.2 0 .4.1.7.1.4 0 .8.1 1.2.1.3 0 .6 0 .8.1.4 0 .8.1 1.3.1h4.1c.3.3.7.3 1 .2z"
							fill="#332920" stroke-width="none" opacity="1" stroke="none"></path>
						<path id="SvgjsPath9040"
							d="M63.3 148.6s-2.6 6.6-9.3 14.7c-8.9 10.7-10.7 17.4-7.4 25.8 3.3 8.4 7.8 12.8 9.3 16.5s1.1 7.6 1.1 7.6 1.9-4.1 1.1-7.2c-.7-3.1-7.4-13.9-8.4-20s.1-12.9 4.2-18.7c3.5-4.9 7.6-11.6 9.4-18.7zm1.9 1.5s-2.5 11.6-6 17.4c-3.5 5.8-4.6 13-2 19.1 2.6 6.1 7.6 14.1 7.2 19.4 0 0 3.4-6.4.2-13s-4.3-16.4-1.7-23.1c2.6-6.6 2.9-15.2 2.3-19.8z"
							fill="#3b3128" stroke-width="none" opacity="1" stroke="none"></path>
						<path id="SvgjsPath9041"
							d="M93.1 59.7c.3 0 .5.1.7.1.4 0 .8.1 1.2.1.3 0 .6 0 .8.1.4 0 .8.1 1.3.1h1.5c-2.4-1-5.2-2.6-7.6-5.4-4.8-5.9-8.5-8.6-16.2-7.8S59 58.1 59.5 69c.5 10.8 4 17.7 6.2 23.6-.6-2.6-1.1-5-1.3-7.3-1.1-12 8.3-32.2 22.8-27.1 2 .7 3.9 1.1 5.9 1.5z"
							fill="#2c2219" stroke-width="none" opacity="1" stroke="none"></path>
					</g>
					<g id="svga-group-glasses-single-move" transform="matrix(1,0,0,1,0,0)">
						<g id="svga-group-glasses-single"></g>
					</g>
				</g>
			</g>
		</g>
		<rect id="svga-credit-rect" width="200" height="15" x="0" y="185" fill="#ecf0f1" opacity="0.5"
			style="display: none;"></rect><text id="svga-credit-text"
			font-family="Avenir Next, Roboto, Helvetica, Arial, sans-serif" font-size="10px" text-anchor="start"
			font-weight="400" size="10px" anchor="start" weight="400" fill="#333333" x="33.40447998046875"
			y="182.60824704170227" style="display: none;">
			<tspan id="SvgjsTspan8803" dy="13" x="33.40447998046875">Created on AvatarMaker.com</tspan>
		</text>
	</g>
	<defs id="SvgjsDefs8755"></defs>
</svg>
